<svg width="28" height="33" viewBox="0 0 28 33" fill="none" xmlns="http://www.w3.org/2000/svg">
<!--!Font Awesome Free 6.5.2 by @fontawesome - https://fontawesome.com License - https://fontawesome.com/license/free Copyright 2024 Fonticons, Inc.-->
    <path
    d="M27.5687 3.50461V30.2826C27.5636 30.7566 27.4289 31.2208 27.1784 31.6276C26.928 32.0344 26.5708 32.3691 26.1435 32.5975C25.7162 32.8259 25.2341 32.9397 24.7467 32.9273C24.2592 32.9149 23.7839 32.7767 23.3695 32.5269L2.81706 20.0303V31.5994C2.81706 31.954 2.67219 32.294 2.41431 32.5448C2.15643 32.7955 1.80667 32.9363 1.44197 32.9363C1.07727 32.9363 0.727514 32.7955 0.469634 32.5448C0.211755 32.294 0.0668793 31.954 0.0668793 31.5994V2.18777C0.0668793 1.8332 0.211755 1.49316 0.469634 1.24244C0.727514 0.991727 1.07727 0.850876 1.44197 0.850876C1.80667 0.850876 2.15643 0.991727 2.41431 1.24244C2.67219 1.49316 2.81706 1.8332 2.81706 2.18777V13.7569L23.3695 1.2603C23.7834 1.00769 24.2592 0.867233 24.7477 0.853472C25.2362 0.83971 25.7196 0.953144 26.1479 1.18203C26.5761 1.41091 26.9337 1.74693 27.1835 2.15529C27.4333 2.56364 27.5663 3.02949 27.5687 3.50461Z"
    fill="#F9DEE5" />
</svg>