<svg width="29" height="33" viewBox="0 0 29 33" fill="none" xmlns="http://www.w3.org/2000/svg">
<!--!Font Awesome Free 6.5.2 by @fontawesome - https://fontawesome.com License - https://fontawesome.com/license/free Copyright 2024 Fonticons, Inc.-->
    <path
    d="M0.867754 30.2826L0.867754 3.50461C0.87289 3.03056 1.00757 2.56636 1.258 2.15959C1.50843 1.75281 1.8656 1.41808 2.29291 1.1897C2.72022 0.961317 3.2023 0.847496 3.68975 0.859905C4.17721 0.872311 4.6525 1.0105 5.06693 1.2603L25.6194 13.7569V2.18777C25.6194 1.8332 25.7643 1.49316 26.0221 1.24244C26.28 0.991726 26.6298 0.850876 26.9945 0.850876C27.3592 0.850876 27.7089 0.991726 27.9668 1.24244C28.2247 1.49316 28.3696 1.8332 28.3696 2.18777L28.3696 31.5994C28.3696 31.954 28.2247 32.294 27.9668 32.5448C27.7089 32.7955 27.3592 32.9363 26.9945 32.9363C26.6298 32.9363 26.28 32.7955 26.0221 32.5448C25.7643 32.294 25.6194 31.954 25.6194 31.5994V20.0303L5.06693 32.5269C4.65303 32.7795 4.17721 32.92 3.68871 32.9337C3.20022 32.9475 2.71683 32.8341 2.28857 32.6052C1.86032 32.3763 1.50278 32.0403 1.25298 31.6319C1.00317 31.2236 0.870169 30.7577 0.867754 30.2826Z"
    fill="#F9DEE5" />
</svg>