<svg width="40" height="42" viewBox="0 0 40 42" fill="none" xmlns="http://www.w3.org/2000/svg">
    <!--!Font Awesome Free 6.5.2 by @fontawesome - https://fontawesome.com License - https://fontawesome.com/license/free Copyright 2024 Fonticons, Inc.-->
    <path
        d="M19.8641 2.84554C16.4929 2.84554 13.1973 3.90404 10.3942 5.88718C7.5911 7.87033 5.40635 10.6891 4.11622 13.9869C2.8261 17.2848 2.48854 20.9136 3.14624 24.4146C3.80394 27.9156 5.42736 31.1314 7.8112 33.6555C10.195 36.1796 13.2322 37.8985 16.5387 38.5949C19.8452 39.2913 23.2725 38.9339 26.3871 37.5678C29.5017 36.2018 32.1639 33.8886 34.0368 30.9206C35.9098 27.9526 36.9095 24.4632 36.9095 20.8936C36.9095 16.107 35.1137 11.5164 31.917 8.13169C28.7204 4.74702 24.3848 2.84554 19.8641 2.84554ZM28.931 22.0474L14.3207 29.7823C14.135 29.8805 13.9287 29.9269 13.7214 29.9169C13.514 29.907 13.3125 29.8411 13.136 29.7255C12.9595 29.6099 12.8138 29.4484 12.7128 29.2564C12.6118 29.0644 12.5588 28.8483 12.5589 28.6285V13.1587C12.5591 12.9391 12.6122 12.7231 12.7133 12.5313C12.8143 12.3394 12.96 12.1781 13.1365 12.0627C13.313 11.9472 13.5144 11.8814 13.7217 11.8716C13.9289 11.8617 14.1351 11.908 14.3207 12.0062L28.931 19.7411C29.133 19.8483 29.3028 20.0128 29.4215 20.2164C29.5402 20.4199 29.603 20.6544 29.603 20.8936C29.603 21.1328 29.5402 21.3673 29.4215 21.5708C29.3028 21.7744 29.133 21.9389 28.931 22.0461"
        fill="#F9DEE5" />
</svg>