<svg width="40" height="37" viewBox="0 0 40 37" fill="none" xmlns="http://www.w3.org/2000/svg">
    <!--!Font Awesome Free 6.5.2 by @fontawesome - https://fontawesome.com License - https://fontawesome.com/license/free Copyright 2024 Fonticons, Inc.-->
    <path
    d="M0.185749 18.4666C0.189715 21.9981 1.61179 25.3839 4.13998 27.8811C6.66818 30.3783 10.096 31.783 13.6714 31.7869H31.6523V34.7469C31.652 35.0398 31.7398 35.3262 31.9044 35.5698C32.069 35.8134 32.3032 36.0033 32.5771 36.1154C32.851 36.2275 33.1525 36.2568 33.4433 36.1996C33.7341 36.1424 34.0012 36.0013 34.2108 35.7941L38.706 31.354C38.8453 31.2165 38.9559 31.0533 39.0313 30.8736C39.1067 30.6939 39.1455 30.5013 39.1455 30.3068C39.1455 30.1123 39.1067 29.9197 39.0313 29.7401C38.9559 29.5604 38.8453 29.3972 38.706 29.2597L34.2108 24.8196C34.0012 24.6124 33.7341 24.4712 33.4433 24.414C33.1525 24.3568 32.851 24.3861 32.5771 24.4983C32.3032 24.6104 32.069 24.8003 31.9044 25.0439C31.7398 25.2875 31.652 25.5738 31.6523 25.8667V28.8268H13.6714C10.8905 28.8239 8.22435 27.7314 6.25796 25.7891C4.29156 23.8468 3.18553 21.2134 3.18256 18.4666C3.18256 18.074 3.02469 17.6976 2.74369 17.42C2.46268 17.1425 2.08156 16.9865 1.68415 16.9865C1.28675 16.9865 0.905627 17.1425 0.624622 17.42C0.343616 17.6976 0.185749 18.074 0.185749 18.4666ZM37.6459 19.9466C37.2485 19.9466 36.8674 19.7907 36.5864 19.5131C36.3054 19.2355 36.1475 18.8591 36.1475 18.4666C36.1445 15.7198 35.0385 13.0863 33.0721 11.144C31.1057 9.20172 28.4395 8.10925 25.6586 8.10631H7.67778V11.0664C7.67801 11.3593 7.59026 11.6457 7.42563 11.8893C7.261 12.1329 7.02689 12.3227 6.75295 12.4349C6.479 12.547 6.17754 12.5763 5.88672 12.5191C5.59591 12.4619 5.32881 12.3207 5.11925 12.1135L0.624033 7.6734C0.484716 7.53595 0.374195 7.37272 0.298789 7.19304C0.223383 7.01337 0.18457 6.82078 0.18457 6.62628C0.18457 6.43178 0.223383 6.23919 0.298789 6.05951C0.374195 5.87984 0.484716 5.71661 0.624033 5.57915L5.11925 1.13905C5.32881 0.931828 5.59591 0.79068 5.88672 0.733475C6.17754 0.676273 6.479 0.705585 6.75295 0.817699C7.02689 0.929817 7.261 1.11969 7.42563 1.3633C7.59026 1.6069 7.67801 1.89328 7.67778 2.18617V5.14624H25.6586C29.234 5.15016 32.6619 6.5548 35.1901 9.052C37.7183 11.5492 39.1403 14.935 39.1443 18.4666C39.1443 18.8591 38.9864 19.2355 38.7054 19.5131C38.4244 19.7907 38.0433 19.9466 37.6459 19.9466Z"
    fill="#F9DEE5" />
</svg>