<svg width="40" height="33" viewBox="0 0 40 33" fill="none" xmlns="http://www.w3.org/2000/svg">
    <!--!Font Awesome Free 6.5.2 by @fontawesome - https://fontawesome.com License - https://fontawesome.com/license/free Copyright 2024 Fonticons, Inc.-->
    <path
    d="M38.9746 7.7169C39.1088 7.58146 39.2152 7.42062 39.2878 7.24358C39.3604 7.06654 39.3978 6.87676 39.3978 6.68511C39.3978 6.49346 39.3604 6.30369 39.2878 6.12665C39.2152 5.94961 39.1088 5.78876 38.9746 5.65332L34.6457 1.27826C34.375 1.00461 34.0077 0.850876 33.6248 0.850876C33.2419 0.850876 32.8747 1.00461 32.604 1.27826C32.3332 1.5519 32.1811 1.92305 32.1811 2.31004C32.1811 2.69704 32.3332 3.06818 32.604 3.34183L34.4708 5.22676H32.3514C30.2846 5.22849 28.2479 5.72795 26.4101 6.68375C24.5724 7.63956 22.9864 9.02419 21.7836 10.7229L14.2586 21.3689C13.323 22.6901 12.0895 23.767 10.6601 24.5104C9.23072 25.2538 7.64668 25.6423 6.03916 25.6437H1.87984C1.49715 25.6437 1.13013 25.7974 0.859521 26.0709C0.588915 26.3444 0.43689 26.7153 0.43689 27.1021C0.43689 27.4889 0.588915 27.8598 0.859521 28.1333C1.13013 28.4068 1.49715 28.5604 1.87984 28.5604H6.03916C8.10599 28.5587 10.1427 28.0593 11.9804 27.1034C13.8182 26.1476 15.4042 24.763 16.607 23.0643L24.132 12.4183C25.0676 11.0971 26.3011 10.0202 27.7305 9.27682C29.1599 8.53343 30.7439 8.14492 32.3514 8.14347H34.4708L32.604 10.0284C32.3332 10.302 32.1811 10.6732 32.1811 11.0602C32.1811 11.4472 32.3332 11.8183 32.604 12.092C32.8747 12.3656 33.2419 12.5193 33.6248 12.5193C34.0077 12.5193 34.375 12.3656 34.6457 12.092L38.9746 7.7169ZM21.9008 20.7218C22.055 20.6105 22.2294 20.5309 22.414 20.4877C22.5986 20.4445 22.7899 20.4385 22.9768 20.47C23.1637 20.5015 23.3426 20.5698 23.5034 20.6712C23.6642 20.7726 23.8036 20.905 23.9138 21.0609L24.1302 21.3653C25.0656 22.6874 26.2992 23.7651 27.729 24.5092C29.1587 25.2532 30.7433 25.6422 32.3514 25.6437H34.4708L32.604 23.7588C32.3332 23.4852 32.1811 23.114 32.1811 22.727C32.1811 22.34 32.3332 21.9689 32.604 21.6952C32.8747 21.4216 33.2419 21.2679 33.6248 21.2679C34.0077 21.2679 34.375 21.4216 34.6457 21.6952L38.9746 26.0703C39.1088 26.2057 39.2152 26.3666 39.2878 26.5436C39.3604 26.7207 39.3978 26.9104 39.3978 27.1021C39.3978 27.2937 39.3604 27.4835 39.2878 27.6606C39.2152 27.8376 39.1088 27.9984 38.9746 28.1339L34.6457 32.5089C34.375 32.7826 34.0077 32.9363 33.6248 32.9363C33.2419 32.9363 32.8747 32.7826 32.604 32.5089C32.3332 32.2353 32.1811 31.8642 32.1811 31.4772C32.1811 31.0902 32.3332 30.719 32.604 30.4454L34.4708 28.5604H32.3514C30.2846 28.5587 28.2479 28.0593 26.4101 27.1034C24.5724 26.1476 22.9864 24.763 21.7836 23.0643L21.5672 22.7598C21.4564 22.604 21.3771 22.4276 21.3339 22.2407C21.2907 22.0538 21.2844 21.8601 21.3154 21.6708C21.3464 21.4815 21.4141 21.3002 21.5145 21.1373C21.615 20.9745 21.7463 20.8333 21.9008 20.7218ZM16.4898 13.0654C16.3356 13.1767 16.1612 13.2563 15.9766 13.2995C15.792 13.3427 15.6007 13.3487 15.4138 13.3172C15.2269 13.2857 15.0479 13.2174 14.8872 13.116C14.7264 13.0146 14.587 12.8822 14.4768 12.7264L14.2604 12.4219C13.325 11.0998 12.0914 10.0221 10.6616 9.27803C9.23191 8.53398 7.6473 8.14504 6.03916 8.14347H1.87984C1.49715 8.14347 1.13013 7.98982 0.859521 7.71633C0.588915 7.44283 0.43689 7.07189 0.43689 6.68511C0.43689 6.29833 0.588915 5.92739 0.859521 5.6539C1.13013 5.3804 1.49715 5.22676 1.87984 5.22676H6.03916C8.10599 5.22849 10.1427 5.72795 11.9804 6.68375C13.8182 7.63956 15.4042 9.02419 16.607 10.7229L16.8234 11.0274C16.9342 11.1832 17.0135 11.3596 17.0567 11.5465C17.0999 11.7334 17.1062 11.9271 17.0752 12.1164C17.0442 12.3057 16.9765 12.487 16.8761 12.6499C16.7756 12.8127 16.6443 12.9539 16.4898 13.0654Z"
    fill="#F9DEE5" />
</svg>